# xmcd CD database file
#
# Track frame offsets:
#	187
#	23057
#	53265
#	70102
#	109517
#	135355
#	158587
#	178965
#	197507
#	227495
#
# Disc length: 3368 seconds
#
# Revision: 0
# Processed by: cddbd v1.5.1PL2 Copyright (c) Steve Scherf et al.
# Submitted via: CDex 1.60beta1
#
DISCID=6e0d260a
DTITLE=Lois Armstrong - Satchmo 1950 And More Disc 1
DYEAR=1950
DGENRE=Jazz
TTITLE0=Panama
TTITLE1=New Orleans Function
TTITLE2=My Bucket's Got A Hole In It
TTITLE3=Bugle Call Rag/Ole Miss
TTITLE4=Twelfth Street Rag
TTITLE5=That's For Me
TTITLE6=Baby, Wont You Please Come Home
TTITLE7=Fine And Dandy
TTITLE8=I Surrender Dear
TTITLE9=Russian Lullaby
EXTD=YEAR: 1950
EXTT0=
EXTT1=
EXTT2=
EXTT3=
EXTT4=
EXTT5=
EXTT6=
EXTT7=
EXTT8=
EXTT9=
PLAYORDER=
